<svg xmlns="http://www.w3.org/2000/svg" xmlns:xlink="http://www.w3.org/1999/xlink" width="125.782" height="107.064" viewBox="0 0 125.782 107.064">
  <defs>
    <linearGradient id="linear-gradient" x1="0.5" x2="0.5" y2="1" gradientUnits="objectBoundingBox">
      <stop offset="0" stop-color="#f77656"/>
      <stop offset="1" stop-color="#f79a3d"/>
    </linearGradient>
    <filter id="Layer_12" x="25.053" y="0" width="100.729" height="100.738" filterUnits="userSpaceOnUse">
      <feOffset dy="3" input="SourceAlpha"/>
      <feGaussianBlur stdDeviation="3" result="blur"/>
      <feFlood flood-opacity="0.161"/>
      <feComposite operator="in" in2="blur"/>
      <feComposite in="SourceGraphic"/>
    </filter>
  </defs>
  <g id="Group_1434" data-name="Group 1434" transform="translate(-134.361 -3934.275)">
    <g id="Group_1430" data-name="Group 1430">
      <path id="Path_1927" data-name="Path 1927" d="M151.776,306.865a2.648,2.648,0,0,0-.228-.353,4.455,4.455,0,0,0-.544-.652c-5.149-6.13-12.83-8.018-20.366-9.914-3.558-.9-7.306-1.715-10.518-3.555-3.362-1.925-4.551-5.262-6.157-8.622-4.085-8.55-9.439-15.521-19.673-15.867-9.917-.337-18.352,6.4-21.3,15.672-.86,2.7-1.113,5.617-2.211,8.247a32.38,32.38,0,0,1-4.416,7.006c-3.2,4.165-6.4,8.08-8.477,12.954-4.614,10.839-4.9,22.656.92,33.123,10.945,19.7,38.67,19.948,57.888,15.214,12.7-3.127,23.392-9.277,31.576-19.6C155.735,331.108,158.71,317.41,151.776,306.865Z" transform="translate(79.932 3678.682)" fill="#ffe2bf"/>
    </g>
    <g transform="matrix(1, 0, 0, 1, 134.36, 3934.28)" filter="url(#Layer_12)">
      <path id="Layer_12-2" data-name="Layer 12" d="M81.778,65.6A1.969,1.969,0,0,0,80.2,64.062L52.238,58.508V57.15c11.659,0,24.1-7.484,24.656-7.877a1.879,1.879,0,0,0,.433-2.954c-2.836-3.092-4.805-10.3-5.376-13.076-.02-14.475-7.9-19.871-10.4-21.19A19.044,19.044,0,0,0,44.36,3.012c-16.483,0-27.571,11.934-27.571,29.7a30.6,30.6,0,0,1-3.643,13.9,1.969,1.969,0,0,0,.217,2.363c.256.276,6.223,6.656,23.12,8.035v1.5L8.518,64.062a1.969,1.969,0,0,0-1.536,1.5L3.044,83.283a2.026,2.026,0,0,0,1.93,2.442H83.747a1.972,1.972,0,0,0,1.93-2.4Z" transform="translate(31.06 3.01)" fill="url(#linear-gradient)"/>
    </g>
  </g>
</svg>
