<svg xmlns="http://www.w3.org/2000/svg" xmlns:xlink="http://www.w3.org/1999/xlink" width="149.148" height="121.16" viewBox="0 0 149.148 121.16">
  <defs>
    <linearGradient id="linear-gradient" x1="0.5" x2="0.5" y2="1" gradientUnits="objectBoundingBox">
      <stop offset="0" stop-color="#f77656"/>
      <stop offset="1" stop-color="#f79a3d"/>
    </linearGradient>
    <filter id="Layer_12" x="31.744" y="17.983" width="101.763" height="101.772" filterUnits="userSpaceOnUse">
      <feOffset dy="3" input="SourceAlpha"/>
      <feGaussianBlur stdDeviation="3" result="blur"/>
      <feFlood flood-opacity="0.161"/>
      <feComposite operator="in" in2="blur"/>
      <feComposite in="SourceGraphic"/>
    </filter>
  </defs>
  <g id="Group_1431" data-name="Group 1431" transform="translate(-389.826 -3915.258)">
    <path id="Path_1931" data-name="Path 1931" d="M391.59,78.1c-.111-.156-.23-.309-.363-.461s-.252-.285-.381-.412a45.7,45.7,0,0,0-28.5-14.329c-11.575-1.276-22.4,1.99-30.483,9.2-3.917,3.493-6.265,8.049-8.219,12.452-7.785,17.543-13.862,19.367-19.74,21.132-4.08,1.225-8.3,2.492-12.4,8.348-5.152,7.361-4.946,17.226.538,25.746,7.171,11.14,21.78,15.227,27.729,16.468a71.352,71.352,0,0,0,14.541,1.458c17.1,0,34.891-5.691,48.173-15.876,9.929-7.615,16.3-18.12,17.935-29.579C402.209,99.745,398.989,87.3,391.59,78.1Z" transform="translate(102.044 3878.721)" fill="#ffe2bf"/>
    <g transform="matrix(1, 0, 0, 1, 389.83, 3915.26)" filter="url(#Layer_12)">
      <path id="Layer_12-2" data-name="Layer 12" d="M82.763,66.381a1.994,1.994,0,0,0-1.6-1.555L52.853,59.2V57.827c11.8,0,24.406-7.577,24.964-7.976a1.9,1.9,0,0,0,.439-2.991c-2.871-3.131-4.865-10.428-5.444-13.24-.02-14.656-8-20.119-10.528-21.455A19.282,19.282,0,0,0,44.877,3.013c-16.689,0-27.915,12.083-27.915,30.069a30.986,30.986,0,0,1-3.689,14.077,1.994,1.994,0,0,0,.219,2.393c.259.279,6.3,6.74,23.409,8.135V59.2L8.587,64.825a1.994,1.994,0,0,0-1.555,1.515L3.044,84.287A2.051,2.051,0,0,0,5,86.759H84.757a2,2,0,0,0,1.954-2.433Z" transform="translate(37.75 21)" fill="url(#linear-gradient)"/>
    </g>
    <path id="Path_1934" data-name="Path 1934" d="M63.871,48A15.871,15.871,0,1,0,79.742,63.871,15.869,15.869,0,0,0,63.871,48ZM61.422,69.494a1.052,1.052,0,0,1-.671.336,1.1,1.1,0,0,1-.679-.343L55.8,65.214l1.358-1.358,3.6,3.6,9.523-9.591,1.335,1.381Z" transform="translate(459.232 3867.258)" fill="#10d354"/>
  </g>
</svg>
