<svg xmlns="http://www.w3.org/2000/svg" xmlns:xlink="http://www.w3.org/1999/xlink" width="107.931" height="105.226" viewBox="0 0 107.931 105.226">
  <defs>
    <linearGradient id="linear-gradient" x1="0.5" x2="0.5" y2="1" gradientUnits="objectBoundingBox">
      <stop offset="0" stop-color="#f7705a"/>
      <stop offset="1" stop-color="#efa862"/>
    </linearGradient>
  </defs>
  <g id="Group_1432" data-name="Group 1432" transform="translate(-694.069 -3929.633)">
    <path id="Path_1932" data-name="Path 1932" d="M378.635,289.318c2.57-5.192,4.349-11.327,2.1-16.961a17.421,17.421,0,0,0-13.241-10.376c-6.3-.874-11.712,1.928-16.491,5.807a48.117,48.117,0,0,0-5.946,5.408c-1.88,2.144-3.155,4.719-5.176,6.729-9.626,9.579-24.45,6.339-35.385,13.418-6.48,4.2-11.048,11.157-13.269,18.467-3.262,10.737-.953,22.173,4.411,31.818,5.983,10.757,15.411,17.71,27.2,21.058,10.148,2.882,21.4,3.611,31.277-.586A37.706,37.706,0,0,0,372.2,347.275a41.848,41.848,0,0,0,4.967-23.877c-.336-4.147-.589-8.3-.91-12.448-.237-3.063-.781-6.156-.432-9.226A61.1,61.1,0,0,1,377.2,294.5c.269-1.131.554-2.26.879-3.378C378.194,290.734,378.982,288.575,378.635,289.318Z" transform="translate(404.348 3667.813)" fill="#ffe2bf"/>
    <path id="Path_1935" data-name="Path 1935" d="M5.237,1A5.252,5.252,0,0,0,0,6.237v41.9a5.252,5.252,0,0,0,5.237,5.237H57.606a5.186,5.186,0,0,0,5.237-5.237V32.422L73.317,42.9H83.791V11.474H73.317L62.843,21.948V6.237A5.186,5.186,0,0,0,57.606,1Z" transform="translate(718.209 3961.698)" fill="url(#linear-gradient)"/>
  </g>
</svg>
