<svg xmlns="http://www.w3.org/2000/svg" xmlns:xlink="http://www.w3.org/1999/xlink" width="114.959" height="101.454" viewBox="0 0 114.959 101.454">
  <defs>
    <linearGradient id="linear-gradient" x1="0.5" x2="0.5" y2="1" gradientUnits="objectBoundingBox">
      <stop offset="0" stop-color="#f6745a"/>
      <stop offset="1" stop-color="#f1995f"/>
    </linearGradient>
  </defs>
  <g id="Group_1433" data-name="Group 1433" transform="translate(-1021.041 -3930.791)">
    <path id="Path_1933" data-name="Path 1933" d="M155.991,91.063a2.2,2.2,0,0,0-.057-.253,2.145,2.145,0,0,0-.014-.27c-2.934-19.835-16.137-38.3-37.485-39.326-10.678-.512-22.965,3.042-29.845,11.7-7.428,9.352-4.142,22.106-8.444,32.623-3.859,9.434-14.406,13.669-18.456,22.962-3.983,9.142-.116,19.616,6.432,26.5,6.412,6.738,16.861,7.692,25.658,7.615a60.8,60.8,0,0,0,31.158-8.49c9.767-5.774,19.877-14.3,25.176-24.51C154.457,111.252,157.17,100.532,155.991,91.063Z" transform="translate(960.964 3879.626)" fill="#ffe2bf"/>
    <g id="Group_1391" data-name="Group 1391" transform="translate(1040.704 3934.531)">
      <rect id="Rectangle_57" data-name="Rectangle 57" width="95" height="95" transform="translate(0.296 0.469)" fill="none"/>
      <path id="Path_1936" data-name="Path 1936" d="M93.407,48.022a16.967,16.967,0,0,1-3.374-4.265,16.272,16.272,0,0,1-.559-5.142c-.054-3.6-.116-7.679-2.952-10.515s-6.916-2.9-10.515-2.952a16.272,16.272,0,0,1-5.142-.559A16.973,16.973,0,0,1,66.6,21.215C64.052,18.77,61.162,16,57.311,16s-6.74,2.77-9.289,5.215a16.967,16.967,0,0,1-4.265,3.374,16.272,16.272,0,0,1-5.142.559c-3.6.054-7.679.116-10.515,2.952s-2.9,6.916-2.952,10.515a16.272,16.272,0,0,1-.559,5.142,16.973,16.973,0,0,1-3.374,4.265C18.77,50.57,16,53.459,16,57.311s2.77,6.74,5.215,9.289a16.967,16.967,0,0,1,3.374,4.265,16.272,16.272,0,0,1,.559,5.142c.054,3.6.116,7.679,2.952,10.515s6.916,2.9,10.515,2.952a16.272,16.272,0,0,1,5.142.559,16.973,16.973,0,0,1,4.265,3.374c2.548,2.444,5.438,5.215,9.289,5.215s6.74-2.77,9.289-5.215a16.967,16.967,0,0,1,4.265-3.374,16.272,16.272,0,0,1,5.142-.559c3.6-.054,7.679-.116,10.515-2.952s2.9-6.916,2.952-10.515a16.272,16.272,0,0,1,.559-5.142A16.973,16.973,0,0,1,93.407,66.6c2.444-2.548,5.215-5.438,5.215-9.289S95.851,50.57,93.407,48.022Zm-36.1,32.9a4.426,4.426,0,1,1,4.426-4.426A4.426,4.426,0,0,1,57.311,80.917Zm2.95-18.033v.33a2.951,2.951,0,1,1-5.9,0V60.263a2.951,2.951,0,0,1,2.951-2.951,7.377,7.377,0,1,0-7.377-7.377,2.951,2.951,0,0,1-5.9,0A13.278,13.278,0,1,1,60.261,62.884Z" transform="translate(-10.098 -9.185)" fill="url(#linear-gradient)"/>
    </g>
  </g>
</svg>
